 <svg version="1.0" xmlns="http://www.w3.org/2000/svg" width="700.000000pt" height="185.000000pt" viewBox="0 0 700.000000 185.000000" preserveAspectRatio="xMidYMid meet">
<metadata>
Created by potrace 1.12, written by Peter Selinger 2001-2015
</metadata>
<g transform="translate(0.000000,185.000000) scale(0.100000,-0.100000)" fill="#000000" stroke="none">
<path d="M147 1713 c-4 -3 -7 -285 -7 -625 l0 -619 313 3 c299 3 315 4 380 27
88 31 158 92 194 170 22 48 26 70 26 156 0 112 -11 150 -65 211 -18 20 -52 45
-75 55 -24 10 -43 22 -43 26 0 5 13 16 29 26 43 25 101 94 108 128 3 16 10 32
14 35 5 3 9 35 9 72 0 111 -42 202 -113 250 -115 76 -201 92 -523 92 -132 0
-244 -3 -247 -7z m513 -208 c71 -19 102 -43 118 -91 20 -60 7 -125 -31 -162
-46 -44 -94 -54 -237 -50 l-125 3 -3 135 c-4 194 -13 180 116 180 61 0 130 -6
162 -15z m61 -499 c109 -46 133 -201 45 -289 -39 -39 -95 -51 -246 -51 l-135
-1 -3 165 c-1 90 0 170 2 177 8 19 291 18 337 -1z"></path>
<path d="M4958 1714 c-4 -3 -7 -284 -7 -625 l-2 -619 126 0 125 0 0 218 c0
156 3 221 12 230 8 8 46 12 104 12 112 0 91 22 235 -257 l103 -203 133 0 c73
0 133 2 133 4 0 4 -89 171 -160 301 -104 189 -117 225 -87 225 20 1 103 66
132 104 86 113 89 338 6 455 -52 73 -151 126 -277 150 -61 11 -566 16 -576 5z
m538 -210 c97 -28 153 -126 131 -233 -12 -59 -76 -123 -139 -139 -49 -12 -245
-17 -272 -6 -14 5 -16 31 -16 184 0 98 3 185 6 194 9 22 213 23 290 0z"></path>
<path d="M1497 1404 c-73 -19 -136 -53 -177 -94 -41 -41 -83 -122 -78 -154 3
-20 8 -21 117 -21 l115 0 8 33 c12 46 58 72 130 72 71 0 97 -11 126 -56 18
-28 22 -46 20 -92 l-3 -57 -125 -6 c-133 -7 -186 -17 -253 -49 -102 -48 -157
-135 -157 -249 0 -76 17 -125 63 -177 107 -121 309 -139 441 -39 40 30 52 28
61 -15 l7 -30 124 0 125 0 -18 33 c-15 28 -18 75 -24 357 -7 351 -8 362 -66
438 -75 100 -279 149 -436 106z m263 -603 l0 -89 -35 -31 c-42 -37 -104 -55
-165 -48 -35 4 -51 13 -77 41 -40 44 -44 90 -10 141 35 56 86 75 195 75 l92 0
0 -89z"></path>
<path d="M3349 1405 c-175 -48 -278 -181 -309 -400 -45 -315 150 -555 450
-555 117 0 213 32 298 99 47 37 66 73 44 83 -4 2 -25 24 -47 51 -44 53 -54 56
-80 27 -18 -19 -35 -29 -108 -59 -62 -25 -170 -10 -231 32 -38 27 -86 104 -86
139 l0 28 279 0 c154 0 286 3 295 6 34 13 9 255 -35 349 -45 95 -135 169 -250
204 -46 14 -161 12 -220 -4z m210 -204 c40 -20 70 -72 78 -132 4 -29 2 -44 -8
-50 -8 -5 -87 -9 -177 -9 -137 0 -164 2 -169 15 -10 27 18 103 54 144 52 61
140 74 222 32z"></path>
<path d="M4249 1405 c-105 -29 -187 -97 -219 -181 -23 -63 -25 -95 -8 -161 15
-57 83 -131 144 -158 21 -9 46 -20 54 -24 8 -5 40 -14 70 -21 200 -46 243 -70
243 -138 0 -23 -7 -49 -14 -58 -39 -47 -162 -59 -236 -23 -41 20 -73 60 -73
92 0 18 -26 23 -120 26 -101 3 -112 -2 -104 -47 10 -50 38 -99 87 -149 75 -78
195 -118 332 -110 135 7 216 38 285 107 52 52 70 98 70 179 0 119 -70 201
-214 251 -30 11 -63 20 -73 20 -9 0 -30 4 -47 9 -17 5 -51 15 -76 22 -25 7
-60 23 -77 36 -28 21 -33 30 -33 67 0 34 6 48 30 71 28 27 37 29 104 29 87 0
119 -16 142 -74 l16 -40 114 0 114 0 0 25 c0 39 -44 127 -81 162 -95 88 -286
127 -430 88z"></path>
<path d="M2110 1373 c5 -16 30 -86 55 -158 26 -71 50 -141 55 -155 4 -14 34
-97 65 -185 152 -431 147 -408 105 -498 -25 -52 -67 -78 -142 -85 l-48 -5 0
-83 c0 -103 7 -108 120 -102 87 5 147 33 195 90 28 33 85 148 85 172 0 7 3 15
6 19 3 3 19 45 35 94 16 48 34 97 39 108 5 11 16 40 24 65 14 43 29 85 169
490 35 102 71 202 80 223 l16 37 -129 0 -130 0 -6 -27 c-3 -16 -14 -55 -24
-88 -10 -33 -30 -100 -45 -150 -14 -49 -30 -101 -34 -115 -5 -14 -19 -60 -32
-102 -37 -119 -34 -122 -117 147 -10 33 -36 122 -58 197 l-39 138 -127 0 -127
0 9 -27z"></path>
<path d="M6013 1393 c95 -163 257 -445 257 -448 0 -2 -57 -102 -126 -222 -69
-120 -130 -226 -135 -235 -9 -17 -1 -18 115 -18 l124 0 66 118 c36 64 74 129
84 145 18 26 19 26 34 10 9 -10 25 -34 35 -53 11 -19 44 -77 73 -128 l52 -92
125 0 125 0 -25 42 c-13 24 -41 72 -62 108 -20 36 -46 80 -56 98 -11 18 -25
43 -33 55 -7 12 -27 47 -43 77 -16 30 -35 64 -42 75 -12 18 -8 30 33 99 25 43
46 79 46 81 0 1 38 66 85 144 47 79 85 145 85 147 0 3 -57 3 -126 2 l-126 -3
-56 -100 c-30 -55 -61 -112 -69 -127 -29 -57 -40 -50 -98 57 -21 39 -51 94
-67 123 l-30 52 -125 0 c-68 0 -122 -3 -120 -7z"></path>
</g>
</svg>